<?xml version="1.0" encoding="UTF-8"?>
<svg id="Layer_1" data-name="Layer 1" xmlns="http://www.w3.org/2000/svg" viewBox="0 0 693.29 484.81">
  <defs>
    <style>
      .cls-1 {
        fill: #f45d35;
      }

      .cls-2 {
        fill: #080808;
      }
    </style>
  </defs>
  <path class="cls-2" d="M514.91,53.69c2.21-.02,4.61-.13,6.32,1.58,17.58,17.62,35.23,35.18,52.67,52.95,19.26,19.62,39.09,38.71,57.6,59.05-18.12,27.4-48.02,61.49-72.52,83.27-12.9,10.09-27.38,18.19-40.95,27.33-36.78,24.81-75.78,46.07-113.11,69.9-8.37,5.37-16.26,10.39-24.88,15.41-10.2-9.22-22.92-23.49-32.48-33.73l-47.4-50.52c23.78-28.57,47.38-57.28,70.83-86.12,43.16-53.08,82.24-104.95,143.93-139.13Z"/>
  <path class="cls-2" d="M682.61.34l10.69-.34c-.76,45.15-18.94,91.56-39.61,131.59-3.33,6.45-7.82,16.04-14.96,18.51-9.36-.57-40.13-35.3-48.42-43.82-9.83-10.18-52.35-51.43-57.55-60.58l.95-2.48c4.19-3.74,12.61-6.93,17.98-9.42C592.98,14.95,637.32,3.61,682.61.34Z"/>
  <path class="cls-2" d="M326.75,149.33c17.06-2.18,36.69,1.52,52.67,7.59-5.97,16.45-63.21,84.6-77.87,101.84-2.53-.99-5.08-1.93-7.64-2.81-35.13-11.89-75.98,6.04-107.41,21.5-14.03,7.07-27.93,14.4-41.69,21.99,1.65-2.07,3.32-4.13,5-6.17,14.2-17.3,29.29-34.46,44.1-51.25,43.42-49.25,62.77-85.77,132.84-92.68Z"/>
  <path class="cls-2" d="M501.54,303.83c1.48.29,2.61.05,3.46,1.44,7.19,11.63,3.14,49.26-.63,62.81-4.23,15.18-11.27,29.44-22.15,40.96-17.23,18.24-94.52,59.55-120.79,74.33-1.12.66-2.25.98-3.49,1.45-.5-2.09,6.84-12.37,8.62-15.16,21.24-33.16,29.42-60.44,27.62-99.71,32.36-21.65,73.74-46.04,107.36-66.11Z"/>
  <path class="cls-1" d="M280.53,288.81c8.89,9.33,18.67,19.24,27.18,28.8-12.3,15.48-31.47,40.24-47.47,53.56-58.21,48.49-131.96,93.01-207.43,106.6-.45.04-.89.08-1.34.12-9.12,2.46-21.76,2.11-31.41,2.07-7.46.39-12.67-.03-20.07-.5,3.36-.74,10.43-2.39,13.7-2.42,3.18-.61,8.2-1.69,11.28-2.03,70.19-15.95,142.86-56.37,187.82-113.3,24.77-31.36,32.18-53.47,67.73-72.91Z"/>
  <path class="cls-2" d="M327.12,344.06c3.9,4.46,8.21,9.21,11.94,13.75-41.66,55.93-102.02,86.5-167.54,105.61l-1.98-1.97c50.09-17.28,84.71-41.59,121.33-79.38,11.04-11.4,24.93-27.93,36.26-38Z"/>
</svg>