<?xml version="1.0" encoding="UTF-8"?>
<svg id="Layer_1" data-name="Layer 1" xmlns="http://www.w3.org/2000/svg" viewBox="0 0 2048 2048">
  <defs>
    <style>
      .cls-1 {
        fill: #d8a095;
      }

      .cls-2 {
        fill: #e56a4b;
      }

      .cls-3 {
        fill: #f45d35;
      }

      .cls-4 {
        fill: #717172;
      }

      .cls-5 {
        fill: #fff;
      }

      .cls-6 {
        fill: #080808;
      }
    </style>
  </defs>
  <path class="cls-5" d="M0,0h2048v2048H0V0Z"/>
  <path class="cls-6" d="M1131.87,552.76c2.21-.02,4.61-.13,6.32,1.58,17.58,17.62,35.23,35.18,52.67,52.95,19.26,19.62,39.09,38.71,57.6,59.05-18.12,27.4-48.02,61.49-72.52,83.27-12.9,10.09-27.38,18.19-40.95,27.33-36.78,24.81-75.78,46.07-113.11,69.9-8.37,5.37-16.26,10.39-24.88,15.41-10.2-9.22-22.92-23.49-32.48-33.73l-47.4-50.52c23.78-28.57,47.38-57.28,70.83-86.12,43.16-53.08,82.24-104.95,143.93-139.13Z"/>
  <path class="cls-3" d="M894.27,1046.52c18.93-.33,37.86-.38,56.79-.13l50.94,50.04.04,107.4c-16.94,14.18-35.22,28.33-52.57,42.11l-19.97.02-49.81-.03c-14.04-13.93-44.74-42.69-56.53-56.62-.2-33.56-.23-67.13-.08-100.69,15.83-13.67,31.24-28.18,47.12-42.04l24.07-.06Z"/>
  <path class="cls-5" d="M885.47,1106.57c18.19-.08,36.37,0,54.56.23.14,23.7.97,54.62,0,77.86-18.12.28-36.24.38-54.36.31l-.2-78.4Z"/>
  <path class="cls-6" d="M1600.74,1285.82l122.8-.02c15.65,14.83,30.91,30.15,46.49,45.06l-.08,55c-9,10.2-22.23,22.91-31.96,32.81,20.05,20.18,39.73,40.73,59.03,61.62l-74.6-.07c-11.84-18.23-31.32-43.3-44.55-61.49-6.84-10.16-8.33-11.06-19.57-15.46,2.93-10.2,5.62-22.12,8.2-32.55,15.62.05,31.24.01,46.86-.11l.03-28.46-53.99.03c-2.81,21.86-11.85,47.35-16.23,69.73,5.06,2.58,10.65,5.99,15.62,8.87l.3,59.78c-19.4-.33-39.05-.25-58.47-.33l.12-194.41Z"/>
  <path class="cls-6" d="M1026.76,1045.49l116.33.17c16.92,16.75,33.92,33.41,51.02,49.97l.06,100.98-51.19,50.13-117.7.04c12.87-11.61,26.02-24.37,38.71-36.28,8.88-8.02,17.64-16.16,26.29-24.42l46.69.13-.31-83.4-53.56-.08.09,75.69c-19.26,18.09-38.62,36.07-58.07,53.93l-.27-127.41c-.01-10.27-.82-50.08.26-58.35l1.65-1.1Z"/>
  <path class="cls-6" d="M1216.7,1044.68c62.41,1.41,129.63.08,192.45-.03-18.17,20.7-36.34,42.21-54.71,62.58l-77.45-.14-.02,12.89,68.05.09c-11.8,13.08-34.35,39.52-48.17,52.79-1.2.09-2.4.18-3.6.26l-16.15-.04v12.92l110.21.28-.12,60.5c-38.19.07-76.39-.07-114.58-.42l-55.77-57.3-.14-144.38Z"/>
  <path class="cls-6" d="M825.2,1265.5c4.6,2.39,32.95,27.32,38.4,31.99l78.51,66.88.09-83.08,54.9.06c.56,72.81.73,145.63.5,218.45l-12.56-11.6-101.82-99.08c-.07,35.56.12,71.12.58,106.67-17.99-17.35-41.33-40.46-58.1-58.55l-.49-171.74Z"/>
  <path class="cls-6" d="M492.51,1286l72.36.15c15.02,16.48,30.63,35.16,45.26,52.13l-.08,142.72-57.11-.04-.22-46.29-29.36.08c-8.16-7-18.66-14.99-27.2-21.9,2.6-10.15,5.73-20.36,8.38-30.72l37.96-.07c3.82-.04,7.05.49,9.86-1.32,1.05-8.22.41-25.61.32-34.62l-57.38.07c.91,35.09-3.72,39.3-13.77,73.47l13.73,10.56.08,50.18-58.11-.12.02-143c18.23-16.7,37.63-34.07,55.26-51.28Z"/>
  <path class="cls-6" d="M1409.16,1285.32l181.04.43c-14.49,19.01-30.87,37.77-45.79,56.9-25.24-.09-50.49-.01-75.72.24l-.06,13.17,68.33.14c-14.01,16.89-29.31,32.18-43.32,49.57l-20.89-.05c-2.47.03-1.3-.29-3.48,1.02-1.35,4.44-.76,9.79-.6,14.56h106.87c-.28,19.35.08,39.52.14,58.93l-111.27-.11c-16.4-16.48-40.78-39.86-55.31-56.96l.06-137.84Z"/>
  <path class="cls-6" d="M743.93,1282.35c19.61-.14,39.43.11,59.06.21l.04,147.72c-16.43,15.04-34.1,31.47-51.01,45.8-25.09.27-50.19.23-75.29-.13-15.73-15.13-31.37-31.71-46.79-47.33l-.02-35.12-.03-110.88,55.69.17c.53,25.42-.67,51.16-.35,76.58.18,14.78-2.95,40.77,7.27,52.25,5.64,6.32,13.56,10.14,22.02,10.6,7.84.37,15.82-2.98,21.46-8.3,3.54-3.28,6-7.56,7.07-12.27,1.7-7.77,1.06-32.88,1.02-42.26-.21-25.68-.26-51.36-.15-77.04Z"/>
  <path class="cls-6" d="M701.72,1045.46c41.66-.85,84.56-.35,126.31-.35-17.14,19.65-34.35,41.25-51.04,61.45-26.01.15-52.01.17-78.01.06v80.41s96.27.01,96.27.01l2.43.43c2.52,4.37,1.43,51.2,1.4,59.46l-100.82.05-60.82-58.38-.32-92.71c15.76-14.15,37.34-36.51,54.59-49.77.76-.58,8.18-.63,10-.66Z"/>
  <path class="cls-6" d="M1073.92,1282.09h123.98c-15.49,19.77-30.8,39.68-45.94,59.73l-70.38-.03c-.17,26.34-.12,52.69.16,79.03,34.06.07,68.43.8,102.51,1.3l2.85.41c2.33,4.62,1.13,49.44,1.07,57.63-35.84-.1-71.68-.56-107.51-1.37-19.75-18.57-39.64-36.98-59.67-55.24l.03-90.49c17.77-16.48,35.27-34.17,52.9-50.97Z"/>
  <path class="cls-6" d="M250.19,1286.82l57.97-.04-.1,135.41h109.12l-.03,58.13-105.97-.15c-20.2-18.46-41.07-39.14-60.93-58.14l-.06-135.21Z"/>
  <path class="cls-6" d="M1299.56,499.41l10.69-.34c-.76,45.15-18.94,91.56-39.61,131.59-3.33,6.45-7.82,16.04-14.96,18.51-9.36-.57-40.13-35.3-48.42-43.82-9.83-10.18-52.35-51.43-57.55-60.58l.95-2.48c4.19-3.74,12.61-6.93,17.98-9.42,41.3-18.86,85.63-30.19,130.92-33.46Z"/>
  <path class="cls-6" d="M1330.93,1285.14h56.55s.01,195.21.01,195.21c-8.64-.09-51.2.77-56.04-.91l-.59-2.19.02-70.17h-40.59c-7.17-5.29-14.42-10.48-21.74-15.56,3.04-10.13,5.86-23.21,8.39-33.69l53.94-.39.05-72.3Z"/>
  <path class="cls-6" d="M943.7,648.4c17.06-2.18,36.69,1.52,52.67,7.59-5.97,16.45-63.21,84.6-77.87,101.84-2.53-.99-5.08-1.93-7.64-2.81-35.13-11.89-75.98,6.04-107.41,21.5-14.03,7.07-27.93,14.4-41.69,21.99,1.65-2.07,3.32-4.13,5-6.17,14.2-17.3,29.29-34.46,44.1-51.25,43.42-49.25,62.77-85.77,132.84-92.68Z"/>
  <path class="cls-6" d="M1118.5,802.9c1.48.29,2.61.05,3.46,1.44,7.19,11.63,3.14,49.26-.63,62.81-4.23,15.18-11.27,29.44-22.15,40.96-17.23,18.24-94.52,59.55-120.79,74.33-1.12.66-2.25.98-3.49,1.45-.5-2.09,6.84-12.37,8.62-15.16,21.24-33.16,29.42-60.44,27.62-99.71,32.36-21.65,73.74-46.04,107.36-66.11Z"/>
  <path class="cls-6" d="M1211.2,1282.32l59.54.23c.09,13.99.95,45.23-.52,57.68-1.39,11.68-12.39,45.52-16.23,58.33,4.78,3.19,9.79,6.86,14.51,10.19.48,17.93.21,36.76.22,54.75v16.71h-57.59l.07-197.89Z"/>
  <path class="cls-3" d="M897.48,787.88c8.89,9.33,18.67,19.24,27.18,28.8-12.3,15.48-31.47,40.24-47.47,53.56-58.21,48.49-131.96,93.01-207.43,106.6-.45.04-.89.08-1.34.12-9.12,2.46-21.76,2.11-31.41,2.07-7.46.39-12.67-.03-20.07-.5,3.36-.74,10.43-2.39,13.7-2.42,3.18-.61,8.2-1.69,11.28-2.03,70.19-15.95,142.86-56.37,187.82-113.3,24.77-31.36,32.18-53.47,67.73-72.91Z"/>
  <path class="cls-2" d="M630.65,976.11c3.18-.61,8.2-1.69,11.28-2.03-.15.82-.45,1.64-.18,2.41,2.17,1.67,21.55.11,26.68.47-9.12,2.46-21.76,2.11-31.41,2.07-7.46.39-12.67-.03-20.07-.5,3.36-.74,10.43-2.39,13.7-2.42Z"/>
  <path class="cls-1" d="M616.96,978.54c3.36-.74,10.43-2.39,13.7-2.42-1.42,3.15,3.72,2.52,6.37,2.93-7.46.39-12.67-.03-20.07-.5Z"/>
  <path class="cls-3" d="M791.54,1501.07c5.91-1.98,11.87-3.81,17.87-5.47-2.33,2.06-6.41,6.04-8.66,7.52-18.96,17.21-56.72,47.55-82.57,50.84-27.93,3.55-62.3-25.94-79.87-45.79.88-2.03.69-1.95,2.64-2.92,57.43,29.41,91.29,12.51,150.59-4.18Z"/>
  <path class="cls-2" d="M791.54,1501.07c5.91-1.98,11.87-3.81,17.87-5.47-2.33,2.06-6.41,6.04-8.66,7.52-3.35-2.77-4.76-1.79-9.21-2.05Z"/>
  <path class="cls-6" d="M944.08,843.13c3.9,4.46,8.21,9.21,11.94,13.75-41.66,55.93-102.02,86.5-167.54,105.61l-1.98-1.97c50.09-17.28,84.71-41.59,121.33-79.38,11.04-11.4,24.93-27.93,36.26-38Z"/>
  <path class="cls-2" d="M735.54,1388.89c6.64,7.51-17.6,32.24-39.19,7.12-.23-1.18-1.14-4.69-.06-5.64.46-.03,1.38,1.72,1.7,2.14,9.2,12.02,30.15,13.4,36.72-1.8l.83-1.82Z"/>
  <path class="cls-4" d="M786.49,960.52l1.98,1.97c-4.49,1.02-17.99,5.22-21.83,3.97l.87.28-.33-.59c6.91-1.56,13.35-4.35,19.31-5.63Z"/>
  <path class="cls-2" d="M630.08,1498.72c3.71,2.07,7.45,3.99,10.87,6.53-1.95.97-1.76.89-2.64,2.92-2.1-1.69-6.41-7.23-8.23-9.45Z"/>
</svg>